<?xml version="1.0" standalone="no"?>
<!DOCTYPE svg PUBLIC "-//W3C//DTD SVG 20010904//EN"
 "http://www.w3.org/TR/2001/REC-SVG-20010904/DTD/svg10.dtd">
<svg version="1.0" xmlns="http://www.w3.org/2000/svg"
 width="532.000000pt" height="532.000000pt" viewBox="0 0 532.000000 532.000000"
 preserveAspectRatio="xMidYMid meet">
<metadata>
Created by potrace 1.11, written by Peter Selinger 2001-2013
</metadata>
<g transform="translate(0.000000,532.000000) scale(0.100000,-0.100000)"
fill="#000000" stroke="none">
<path d="M3013 4748 c-25 -5 -43 -16 -46 -26 -4 -16 -5 -16 -6 1 -1 17 -31 25
-31 8 0 -43 41 -80 53 -48 3 7 6 6 6 -5 1 -10 11 -18 29 -21 15 -2 -30 -5 -99
-6 -69 0 -148 -3 -175 -6 l-49 -6 40 15 c22 9 55 16 73 16 17 0 32 5 32 10 0
6 5 10 10 10 6 0 10 -7 10 -15 0 -8 7 -15 15 -15 9 0 15 9 15 25 0 16 6 25 15
25 8 0 15 7 15 15 0 19 -7 19 -61 -1 -24 -8 -57 -17 -74 -19 -46 -5 -128 -37
-149 -57 -11 -10 -26 -18 -34 -18 -14 0 -64 -32 -90 -57 -7 -6 -28 -17 -47
-24 -19 -7 -35 -16 -35 -20 0 -4 -18 -16 -41 -28 -44 -23 -43 -23 -108 -81
-24 -22 -48 -40 -53 -40 -4 0 -8 -6 -8 -13 0 -7 -9 -18 -20 -25 -11 -6 -31
-35 -46 -63 l-25 -51 3 -252 c4 -234 5 -254 26 -296 12 -25 22 -64 22 -87 0
-23 8 -56 18 -74 16 -32 23 -41 50 -73 6 -8 12 -20 12 -26 0 -5 5 -10 10 -10
6 0 10 -7 10 -15 0 -8 7 -15 15 -15 8 0 15 5 15 10 0 18 18 10 23 -10 3 -11 1
-20 -4 -20 -5 0 -9 -7 -9 -15 0 -8 5 -15 10 -15 6 0 10 -7 10 -15 0 -8 7 -15
15 -15 8 0 15 5 15 11 0 6 17 -3 38 -20 58 -49 60 -51 72 -51 11 0 13 11 4 34
-3 9 -12 16 -20 16 -8 0 -14 9 -14 20 0 13 -7 20 -20 20 -13 0 -20 7 -20 19 0
10 -11 27 -25 37 -14 10 -25 23 -25 29 0 6 -11 22 -25 37 -14 15 -25 34 -25
43 0 8 -4 15 -8 15 -9 0 -32 79 -32 109 0 11 -8 22 -17 24 -17 4 -17 5 0 6 21
1 23 31 2 31 -8 0 -15 -4 -15 -10 0 -5 -8 -10 -17 -10 -15 0 -15 2 -4 9 8 6
11 16 7 27 -4 10 -4 43 0 74 4 30 9 49 11 43 6 -18 33 -16 33 1 0 8 -8 17 -17
19 -17 4 -17 5 0 6 9 0 17 7 17 15 0 8 -8 17 -17 19 -15 4 -15 5 -2 6 13 1 17
20 23 111 5 89 12 125 38 192 18 46 37 88 43 94 28 31 45 55 45 62 0 10 38 42
50 42 6 0 10 4 10 8 0 5 24 19 53 33 28 13 54 27 57 30 3 3 15 9 28 13 12 4
22 11 22 15 0 5 27 16 60 25 40 11 60 22 60 32 0 12 -7 14 -32 9 -43 -9 -88
-28 -88 -37 0 -5 -6 -8 -14 -8 -8 0 -21 -6 -28 -13 -7 -7 -28 -19 -46 -25 -28
-10 -36 -9 -49 4 -14 13 -13 14 10 9 18 -5 31 0 50 19 14 14 31 26 37 26 5 0
10 5 10 10 0 6 7 10 15 10 8 0 15 4 15 9 0 5 11 12 25 15 14 4 25 14 26 24 0
10 3 12 6 5 5 -15 33 -18 33 -4 0 14 83 31 147 31 l58 -1 -64 -24 c-35 -14
-72 -25 -82 -25 -11 0 -19 -7 -19 -15 0 -9 9 -15 22 -15 30 0 168 53 168 65 0
16 180 18 299 4 59 -7 132 -23 165 -36 33 -13 68 -23 78 -23 10 0 18 -4 18 -8
0 -5 17 -14 39 -20 48 -15 51 -15 51 2 0 7 -15 18 -32 24 l-33 10 32 1 c19 1
51 -10 77 -26 49 -30 62 -50 21 -31 -14 6 -25 15 -25 20 0 4 -7 8 -15 8 -22 0
-18 -23 7 -40 33 -23 92 -74 101 -87 4 -7 14 -19 22 -27 8 -8 15 -19 15 -25 0
-6 5 -11 10 -11 6 0 10 -7 10 -15 0 -8 4 -15 9 -15 5 0 12 -11 15 -25 4 -16
13 -25 26 -25 17 0 20 7 20 45 0 25 -4 45 -10 45 -5 0 -10 7 -10 15 0 8 -7 15
-15 15 -8 0 -15 -7 -15 -15 0 -8 5 -15 10 -15 6 0 9 -10 9 -22 -1 -17 -2 -19
-6 -5 -2 9 -9 17 -14 17 -5 0 -9 6 -9 14 0 8 -6 17 -12 20 -10 5 -10 7 0 12
20 9 14 32 -10 36 -18 2 -22 9 -20 26 3 20 0 23 -20 20 -19 -2 -22 1 -20 20 2
12 -2 22 -7 22 -6 0 -11 6 -11 14 0 8 -7 16 -15 20 -8 3 -19 16 -24 29 -9 23
-104 77 -135 77 -9 0 -16 5 -16 10 0 14 -27 12 -33 -2 -4 -8 -6 -7 -6 4 -1 10
-13 19 -31 23 -16 4 -30 10 -30 14 0 4 -19 13 -42 20 -22 7 -48 19 -55 27 -19
18 -43 18 -43 -1 0 -8 11 -17 25 -21 14 -3 25 -10 25 -14 0 -4 20 -13 45 -20
25 -7 45 -16 45 -21 0 -11 -66 -4 -104 11 -16 6 -35 9 -43 6 -7 -3 -13 1 -13
9 0 18 -26 20 -33 3 -3 -8 -6 -6 -6 5 -1 21 -31 23 -31 2 0 -8 -4 -15 -10 -15
-5 0 -10 7 -10 14 0 11 -15 16 -52 19 -50 3 -49 3 15 5 52 2 67 5 67 17 0 12
-13 15 -62 14 -35 -1 -82 -5 -105 -11z m420 -135 c-7 -2 -21 -2 -30 0 -10 3
-4 5 12 5 17 0 24 -2 18 -5z m-1073 -171 c0 -10 -57 -72 -67 -72 -14 -1 -51
-36 -77 -75 -14 -21 -26 -33 -26 -28 0 6 9 22 20 36 11 14 20 30 20 36 0 6 4
11 9 11 10 0 48 31 89 72 30 30 32 31 32 20z m80 -12 c0 -5 -4 -10 -10 -10 -5
0 -10 5 -10 10 0 6 5 10 10 10 6 0 10 -4 10 -10z m-30 -24 c0 -8 -7 -16 -15
-20 -8 -3 -15 -11 -15 -19 0 -14 -52 -77 -64 -77 -9 0 28 69 55 103 25 30 39
35 39 13z m-139 -143 c-15 -51 -42 -106 -68 -138 -5 -5 -14 -21 -21 -35 -12
-24 -12 -24 -6 8 3 20 1 32 -5 32 -6 0 -11 5 -11 10 0 6 6 10 13 10 8 0 19 22
27 50 7 28 16 50 19 50 3 0 17 16 30 35 13 19 27 35 31 35 4 0 0 -26 -9 -57z
m-100 -50 c-12 -20 -14 -14 -5 12 4 9 9 14 11 11 3 -2 0 -13 -6 -23z m69 -140
c0 -46 -34 -251 -44 -260 -3 -3 -6 6 -6 20 0 19 -5 27 -17 28 -17 1 -17 2 0 6
14 4 17 17 17 88 0 46 4 86 9 90 5 3 12 19 16 35 9 42 25 37 25 -7z m65 -653
c3 -5 1 -10 -4 -10 -6 0 -11 5 -11 10 0 6 2 10 4 10 3 0 8 -4 11 -10z"/>
<path d="M3190 4745 c0 -10 10 -15 30 -15 20 0 30 5 30 15 0 10 -10 15 -30 15
-20 0 -30 -5 -30 -15z"/>
<path d="M2900 4685 c0 -8 7 -15 15 -15 8 0 15 7 15 15 0 8 -7 15 -15 15 -8 0
-15 -7 -15 -15z"/>
<path d="M2240 3765 c0 -8 7 -15 15 -15 8 0 15 7 15 15 0 8 -7 15 -15 15 -8 0
-15 -7 -15 -15z"/>
<path d="M2240 3715 c0 -8 7 -15 15 -15 8 0 15 7 15 15 0 8 -7 15 -15 15 -8 0
-15 -7 -15 -15z"/>
<path d="M2380 3265 c0 -8 7 -15 15 -15 8 0 15 7 15 15 0 8 -7 15 -15 15 -8 0
-15 -7 -15 -15z"/>
<path d="M2502 3241 c-17 -10 -5 -61 13 -61 8 0 16 -8 19 -18 3 -10 24 -24 46
-32 32 -12 37 -18 29 -30 -8 -11 -12 -12 -16 -2 -2 6 -11 12 -19 12 -8 0 -14
5 -14 10 0 6 -7 10 -15 10 -8 0 -15 -7 -15 -15 0 -8 6 -15 13 -15 7 0 19 -9
27 -20 8 -11 20 -20 27 -20 7 0 13 -5 13 -11 0 -5 23 -19 50 -31 28 -11 50
-24 50 -27 0 -4 16 -15 35 -25 19 -11 35 -22 35 -26 0 -4 18 -10 40 -14 22 -3
40 -11 40 -16 0 -6 12 -10 28 -11 15 0 21 -3 15 -6 -18 -7 -16 -33 1 -33 8 0
16 8 18 17 3 16 4 16 20 0 22 -22 38 -22 38 1 0 18 -45 47 -92 58 -31 7 -46
44 -19 44 10 0 27 -8 39 -17 25 -22 47 -38 90 -63 17 -11 32 -25 31 -32 0 -10
-2 -10 -6 0 -7 17 -33 15 -33 -3 0 -8 6 -15 14 -15 9 0 12 -7 9 -20 -4 -14 0
-20 11 -20 9 0 16 6 16 13 0 8 3 8 9 -2 5 -8 16 -11 25 -8 10 4 16 1 16 -8 0
-8 7 -15 15 -15 8 0 15 -7 15 -15 0 -8 7 -15 15 -15 8 0 15 -4 15 -10 0 -5 7
-10 15 -10 8 0 15 -7 15 -15 0 -8 9 -15 20 -15 13 0 20 -7 20 -20 l0 -20 -20
20 c-11 11 -27 20 -35 20 -26 0 -16 -28 15 -42 17 -7 30 -17 30 -22 0 -4 9 -6
20 -3 13 3 20 0 20 -8 0 -8 6 -20 13 -27 19 -21 48 -88 37 -88 -6 0 -10 7 -10
15 0 8 -7 15 -15 15 -8 0 -15 -7 -15 -15 0 -8 5 -15 10 -15 6 0 10 -7 10 -15
0 -8 5 -15 11 -15 9 0 40 -30 79 -77 19 -23 47 -98 42 -112 -2 -7 2 -17 9 -22
10 -6 11 -9 2 -9 -7 0 -13 -7 -13 -16 0 -11 6 -15 20 -11 15 4 20 0 20 -13 0
-11 4 -21 9 -24 4 -3 11 -24 15 -46 4 -27 11 -40 22 -40 12 0 14 7 10 33 l-6
32 12 -30 c12 -32 25 -45 47 -45 9 0 11 8 6 28 -3 15 -11 29 -16 30 -5 2 -9
17 -9 33 0 16 -4 29 -9 29 -5 0 -12 13 -16 29 -3 16 -13 32 -20 35 -8 3 -12
12 -9 20 5 13 -77 184 -94 196 -5 3 -19 22 -31 43 -13 22 -34 50 -47 62 -13
13 -24 28 -24 32 0 4 -14 22 -30 40 -17 18 -30 35 -30 38 0 7 -79 85 -86 85
-3 0 -29 24 -58 54 -29 30 -68 62 -87 71 -18 10 -39 23 -46 29 -35 31 -45 37
-73 42 -16 4 -30 10 -30 14 0 4 -18 13 -40 20 -22 7 -40 19 -40 27 0 8 -12 13
-30 13 -23 0 -30 4 -30 20 0 34 -27 22 -34 -15 -8 -41 -5 -39 -42 -20 -20 10
-23 15 -11 15 9 0 17 5 17 10 0 6 7 10 15 10 39 0 5 44 -42 54 -24 6 -30 11
-26 27 4 15 0 19 -21 19 -21 0 -26 5 -26 25 0 25 -14 31 -38 16z m262 -233
c-3 -5 -12 -2 -20 6 -20 21 -17 28 5 14 11 -7 17 -16 15 -20z m63 -23 c-14
-15 -37 -9 -37 10 0 8 9 11 24 8 20 -4 22 -8 13 -18z"/>
<path d="M2410 3225 c0 -8 5 -15 10 -15 6 0 10 -7 10 -15 0 -8 7 -15 15 -15 8
0 15 -4 15 -10 0 -5 7 -10 15 -10 8 0 15 7 15 15 0 8 -5 15 -11 15 -14 0 -39
25 -39 39 0 6 -7 11 -15 11 -8 0 -15 -7 -15 -15z"/>
<path d="M2500 3145 c0 -8 7 -15 15 -15 8 0 15 7 15 15 0 8 -7 15 -15 15 -8 0
-15 -7 -15 -15z"/>
<path d="M2830 2875 c0 -8 7 -15 15 -15 8 0 15 7 15 15 0 8 -7 15 -15 15 -8 0
-15 -7 -15 -15z"/>
<path d="M2900 2805 c0 -8 7 -15 15 -15 8 0 15 7 15 15 0 8 -7 15 -15 15 -8 0
-15 -7 -15 -15z"/>
<path d="M2960 2805 c0 -8 7 -15 15 -15 8 0 15 7 15 15 0 8 -7 15 -15 15 -8 0
-15 -7 -15 -15z"/>
<path d="M3050 2785 c0 -8 7 -15 15 -15 8 0 15 7 15 15 0 8 -7 15 -15 15 -8 0
-15 -7 -15 -15z"/>
<path d="M2940 2765 c0 -8 7 -15 15 -15 8 0 15 7 15 15 0 8 -7 15 -15 15 -8 0
-15 -7 -15 -15z"/>
<path d="M3000 2755 c0 -8 7 -15 15 -15 8 0 15 7 15 15 0 8 -7 15 -15 15 -8 0
-15 -7 -15 -15z"/>
<path d="M3090 2746 c0 -13 20 -26 41 -26 15 0 10 27 -7 34 -24 9 -34 7 -34
-8z"/>
<path d="M3010 2715 c0 -8 7 -15 15 -15 8 0 15 7 15 15 0 8 -7 15 -15 15 -8 0
-15 -7 -15 -15z"/>
<path d="M3050 2715 c0 -8 7 -15 15 -15 8 0 15 7 15 15 0 8 -7 15 -15 15 -8 0
-15 -7 -15 -15z"/>
<path d="M3050 2675 c0 -8 5 -15 10 -15 6 0 10 -7 10 -15 0 -8 7 -15 15 -15 8
0 15 5 15 10 0 6 7 10 15 10 8 0 15 7 15 15 0 8 -7 15 -15 15 -8 0 -15 -4 -15
-10 0 -5 -4 -10 -10 -10 -5 0 -10 7 -10 15 0 8 -7 15 -15 15 -8 0 -15 -7 -15
-15z"/>
<path d="M3100 2615 c0 -9 7 -18 15 -21 8 -4 15 -10 15 -15 0 -4 15 -24 34
-42 18 -19 37 -44 41 -56 3 -11 11 -21 16 -21 5 0 9 -7 9 -15 0 -8 7 -15 15
-15 8 0 15 7 15 15 0 8 -4 15 -8 15 -4 0 -14 16 -21 35 -12 33 -64 95 -81 95
-4 0 -10 9 -13 20 -6 23 -37 27 -37 5z"/>
<path d="M3150 2615 c0 -8 7 -15 15 -15 8 0 15 7 15 15 0 8 -7 15 -15 15 -8 0
-15 -7 -15 -15z"/>
<path d="M3210 2575 c0 -8 7 -15 15 -15 8 0 15 7 15 15 0 8 -7 15 -15 15 -8 0
-15 -7 -15 -15z"/>
<path d="M3240 2405 c0 -8 7 -15 15 -15 8 0 15 -7 15 -15 0 -8 5 -15 10 -15 6
0 10 -7 10 -15 0 -8 5 -15 10 -15 6 0 10 -7 10 -15 0 -8 7 -15 15 -15 8 0 15
7 15 15 0 8 -4 15 -10 15 -5 0 -10 7 -10 15 0 8 -4 15 -10 15 -5 0 -10 7 -10
15 0 8 -7 15 -15 15 -8 0 -15 7 -15 15 0 8 -7 15 -15 15 -8 0 -15 -7 -15 -15z"/>
<path d="M3330 2275 c0 -8 7 -15 15 -15 8 0 15 7 15 15 0 8 -7 15 -15 15 -8 0
-15 -7 -15 -15z"/>
<path d="M3360 2215 c0 -8 7 -15 15 -15 8 0 15 7 15 15 0 8 -7 15 -15 15 -8 0
-15 -7 -15 -15z"/>
<path d="M3410 2205 c0 -8 7 -15 15 -15 8 0 15 7 15 15 0 8 -7 15 -15 15 -8 0
-15 -7 -15 -15z"/>
<path d="M3400 2155 c0 -8 7 -15 15 -15 14 0 20 -17 16 -48 -1 -7 5 -19 14
-28 17 -18 20 -34 5 -34 -5 0 -10 -7 -10 -15 0 -8 7 -15 15 -15 8 0 15 -4 15
-10 0 -5 -4 -10 -10 -10 -5 0 -10 -7 -10 -15 0 -10 10 -15 28 -15 26 0 27 -2
30 -65 2 -41 -1 -65 -7 -65 -6 0 -11 -7 -11 -15 0 -8 4 -15 8 -15 5 0 9 -45
10 -100 2 -63 -1 -100 -8 -100 -5 0 -10 -7 -10 -15 0 -8 5 -15 10 -15 6 0 10
-4 10 -10 0 -5 -7 -10 -15 -10 -12 0 -15 -13 -15 -58 0 -32 -9 -81 -20 -112
-24 -65 -24 -70 -6 -70 7 0 19 15 26 33 27 73 29 74 29 26 1 -59 -20 -109 -64
-153 -19 -20 -35 -40 -35 -46 0 -5 -4 -10 -10 -10 -5 0 -10 5 -10 10 0 23 -28
7 -43 -24 -17 -36 -36 -61 -74 -102 -13 -13 -23 -26 -23 -29 0 -10 -28 -35
-39 -35 -6 0 -11 -4 -11 -9 0 -5 -27 -22 -60 -38 -58 -27 -74 -46 -47 -56 16
-6 7 -14 -26 -22 -17 -5 -27 -3 -27 4 0 6 7 11 15 11 8 0 15 7 15 15 0 8 -7
15 -15 15 -8 0 -15 -4 -15 -8 0 -5 -18 -14 -40 -21 -25 -7 -40 -18 -40 -28 0
-15 12 -15 53 2 12 5 17 2 17 -9 0 -9 -8 -16 -20 -16 -11 0 -20 -4 -20 -10 0
-5 -8 -10 -18 -10 -10 0 -63 -15 -117 -33 -82 -28 -101 -38 -103 -55 -2 -15 2
-22 12 -22 9 0 16 4 16 10 0 5 6 7 13 4 7 -2 39 5 71 16 33 11 70 20 83 20 21
0 59 16 73 30 3 3 23 14 45 25 22 11 42 23 45 26 3 3 22 12 43 18 20 7 37 17
37 22 0 5 7 9 16 9 27 0 143 60 177 91 70 65 88 85 93 106 6 24 -15 53 -38 53
-10 0 -9 3 2 10 21 14 30 12 30 -5 0 -20 29 -19 37 1 3 9 0 20 -8 25 -11 7 -9
9 7 9 19 0 22 7 27 61 3 34 11 65 18 70 10 6 10 13 1 33 -9 20 -8 33 3 60 17
41 19 83 5 88 -6 2 -12 106 -14 273 -3 149 -7 286 -10 305 l-6 35 12 -32 c6
-18 14 -33 19 -33 4 0 5 -9 2 -20 -3 -11 0 -20 6 -20 6 0 11 -8 11 -18 0 -10
3 -22 7 -25 7 -7 9 -27 13 -117 2 -30 8 -58 14 -62 8 -5 7 -8 -1 -8 -7 0 -13
-7 -13 -15 0 -8 6 -15 13 -15 9 0 9 -2 0 -8 -6 -4 -15 -20 -18 -35 -7 -25 -5
-27 24 -27 31 0 44 23 19 33 -10 4 -10 8 1 15 10 8 12 23 7 63 -4 30 -11 83
-15 119 -8 68 -18 100 -31 100 -5 0 -6 9 -3 20 3 11 1 20 -5 20 -6 0 -8 9 -5
20 3 11 0 20 -6 20 -7 0 -9 9 -5 25 5 22 3 25 -19 25 -14 0 -28 -6 -30 -12 -3
-8 -6 -6 -6 5 -1 9 -8 17 -17 17 -13 0 -15 -7 -9 -37 4 -21 9 -51 11 -68 l4
-30 -10 30 c-6 17 -21 60 -33 98 -18 57 -25 67 -44 67 -14 0 -23 -6 -23 -15z
m29 -1083 c-10 -2 -19 -8 -19 -13 0 -13 -38 -49 -51 -49 -6 0 -9 -9 -6 -20 3
-10 -1 -24 -9 -31 -11 -9 -14 -8 -14 5 0 9 -4 16 -10 16 -5 0 -1 13 8 30 9 16
23 30 29 30 7 0 25 13 39 29 21 23 29 27 39 18 10 -10 9 -13 -6 -15z m-136
-135 c-21 -13 -26 -2 -12 24 12 23 12 23 19 4 5 -13 2 -23 -7 -28z"/>
<path d="M3460 1895 c0 -8 7 -15 15 -15 8 0 15 7 15 15 0 8 -7 15 -15 15 -8 0
-15 -7 -15 -15z"/>
<path d="M3470 1845 c0 -8 7 -15 15 -15 8 0 15 7 15 15 0 8 -7 15 -15 15 -8 0
-15 -7 -15 -15z"/>
<path d="M1523 1813 c-18 -3 -23 -11 -23 -33 0 -16 -4 -30 -9 -32 -5 -1 -11
-56 -12 -120 -2 -65 -7 -118 -11 -118 -14 0 -8 -28 7 -34 8 -3 15 -10 15 -16
0 -5 -7 -10 -15 -10 -8 0 -15 -7 -15 -15 0 -8 6 -15 14 -15 8 0 17 -4 20 -9 4
-5 -3 -7 -14 -4 -14 4 -20 0 -20 -11 0 -9 7 -16 15 -16 8 0 15 -7 15 -15 0 -8
-7 -15 -15 -15 -8 0 -15 -7 -15 -15 0 -8 7 -15 15 -15 8 0 15 -4 15 -10 0 -5
-7 -10 -15 -10 -8 0 -15 -7 -15 -15 0 -18 30 -20 31 -2 1 6 5 -6 10 -28 12
-53 29 -85 46 -85 17 0 16 3 -7 74 -11 33 -20 66 -19 75 0 9 11 -18 25 -59 25
-77 83 -202 97 -208 13 -6 7 -22 -9 -22 -24 0 -43 25 -37 49 4 15 1 21 -11 21
-9 0 -16 -6 -16 -12 0 -7 -14 1 -30 19 -17 18 -30 37 -30 42 0 6 -7 11 -15 11
-8 0 -15 -7 -15 -15 0 -8 4 -15 8 -15 4 0 13 -15 20 -34 8 -22 23 -38 42 -46
17 -7 30 -16 30 -21 0 -5 7 -9 15 -9 8 0 15 -4 15 -10 0 -5 9 -10 20 -10 11 0
20 5 20 10 0 6 5 10 11 10 8 0 9 -13 5 -40 -5 -32 -3 -40 9 -40 8 0 15 8 16
18 0 14 2 14 9 -3 4 -11 6 -30 3 -42 -4 -19 -1 -23 21 -23 19 0 26 -5 26 -20
0 -11 5 -20 10 -20 6 0 10 -5 10 -11 0 -11 75 -105 100 -126 8 -7 23 -13 32
-13 9 0 18 -4 20 -8 4 -10 105 -52 124 -52 8 0 14 -5 14 -11 0 -6 9 -9 20 -6
10 3 21 0 23 -6 2 -8 48 -12 138 -13 149 -1 249 12 249 33 0 11 -20 12 -105 7
-94 -6 -105 -5 -105 10 0 9 -7 16 -15 16 -8 0 -15 -7 -15 -15 0 -8 -4 -15 -10
-15 -5 0 -10 7 -10 15 0 8 -7 15 -15 15 -8 0 -15 -7 -15 -15 0 -8 -4 -15 -10
-15 -5 0 -10 7 -10 15 0 25 -30 17 -31 -7 0 -13 -3 -17 -6 -10 -2 6 -11 12
-19 12 -8 0 -14 5 -14 10 0 6 -12 10 -27 10 -33 0 -113 29 -113 41 0 5 -7 9
-15 9 -8 0 -15 7 -15 15 0 8 -9 15 -20 15 -12 0 -20 7 -20 16 0 11 -6 15 -20
11 -14 -4 -20 0 -20 13 0 10 -8 20 -18 22 -9 3 -26 22 -37 44 -11 21 -24 42
-29 45 -5 4 -4 19 2 35 l10 29 7 -27 c4 -16 13 -28 21 -28 7 0 29 -16 48 -35
20 -19 40 -35 46 -35 5 0 10 -4 10 -10 0 -5 7 -10 15 -10 8 0 15 -4 15 -9 0
-5 14 -13 32 -16 18 -4 48 -16 68 -26 19 -10 53 -19 75 -21 22 -2 45 -8 52
-14 7 -7 52 -17 100 -24 125 -17 133 -19 133 -35 0 -8 7 -15 15 -15 8 0 15 8
15 18 0 13 2 14 9 4 6 -10 25 -12 76 -8 36 3 71 8 76 12 5 3 9 -4 9 -15 0 -12
7 -21 15 -21 8 0 15 5 15 10 0 6 11 8 25 4 16 -4 25 -2 25 5 0 7 9 9 25 5 21
-5 25 -3 25 16 0 12 -6 28 -14 36 -16 15 -36 19 -36 6 0 -5 -60 -9 -132 -11
-151 -2 -282 17 -362 53 -28 12 -78 33 -111 46 -33 13 -66 30 -73 37 -19 18
-40 16 -45 -4 -3 -13 -5 -12 -6 5 -1 21 -5 23 -33 18 -18 -3 -27 -3 -20 0 6 3
12 12 12 20 0 17 -26 19 -33 2 -3 -8 -6 -6 -6 4 -1 10 -12 20 -26 24 -14 3
-25 10 -25 15 0 4 -11 19 -25 33 -14 14 -25 30 -25 36 0 5 -7 10 -15 10 -8 0
-15 -7 -15 -15 0 -8 5 -15 10 -15 6 0 10 -7 10 -15 0 -8 -4 -15 -10 -15 -5 0
-10 5 -10 10 0 6 -9 10 -20 10 -11 0 -20 5 -20 10 0 6 5 10 10 10 6 0 10 7 10
15 0 8 5 15 10 15 6 0 10 7 10 15 0 8 -7 15 -15 15 -8 0 -15 -6 -15 -14 0 -8
-7 -17 -16 -20 -22 -9 -24 -8 -24 9 0 8 -4 15 -10 15 -5 0 -10 6 -10 13 0 8
-14 42 -31 76 -17 34 -28 65 -25 68 3 4 6 1 6 -5 0 -7 8 -20 18 -30 20 -21 52
-86 52 -107 0 -8 7 -15 15 -15 16 0 22 55 6 64 -5 3 -12 21 -15 40 -4 23 -14
36 -29 41 -13 4 -17 8 -9 12 19 8 14 33 -7 33 -11 0 -23 5 -26 10 -3 6 1 10 9
10 9 0 16 7 16 15 0 8 -7 15 -15 15 -8 0 -15 -6 -15 -12 0 -7 -14 7 -30 32
-17 26 -30 58 -30 77 0 17 -4 43 -10 58 -14 37 -21 205 -8 205 6 0 8 9 5 21
-3 13 -1 19 6 16 8 -2 14 -47 17 -133 3 -75 10 -138 18 -151 6 -12 12 -31 12
-42 0 -12 7 -21 15 -21 8 0 15 8 15 19 0 10 -7 38 -15 61 -9 25 -15 78 -15
130 0 48 -3 128 -6 178 -7 98 -6 96 -61 85z m24 -58 c1 -23 -3 -35 -12 -35
-12 0 -12 16 1 58 6 20 9 14 11 -23z"/>
<path d="M3620 1615 c0 -8 7 -15 15 -15 8 0 15 7 15 15 0 8 -7 15 -15 15 -8 0
-15 -7 -15 -15z"/>
<path d="M3580 1605 c0 -8 7 -15 15 -15 8 0 15 7 15 15 0 8 -7 15 -15 15 -8 0
-15 -7 -15 -15z"/>
<path d="M3620 1575 c0 -8 7 -15 15 -15 8 0 15 7 15 15 0 8 -7 15 -15 15 -8 0
-15 -7 -15 -15z"/>
<path d="M3570 1565 c0 -8 7 -15 15 -15 8 0 15 7 15 15 0 8 -7 15 -15 15 -8 0
-15 -7 -15 -15z"/>
<path d="M3620 1525 c0 -8 7 -15 15 -15 8 0 15 7 15 15 0 8 -7 15 -15 15 -8 0
-15 -7 -15 -15z"/>
<path d="M3560 1515 c0 -8 7 -15 15 -15 8 0 15 7 15 15 0 8 -7 15 -15 15 -8 0
-15 -7 -15 -15z"/>
<path d="M3620 1465 c0 -8 7 -15 15 -15 8 0 15 7 15 15 0 8 -7 15 -15 15 -8 0
-15 -7 -15 -15z"/>
<path d="M3610 1425 c0 -8 7 -15 15 -15 8 0 15 7 15 15 0 8 -7 15 -15 15 -8 0
-15 -7 -15 -15z"/>
<path d="M3590 1385 c0 -8 7 -15 15 -15 8 0 15 7 15 15 0 8 -7 15 -15 15 -8 0
-15 -7 -15 -15z"/>
<path d="M3570 1345 c0 -8 7 -15 15 -15 8 0 15 7 15 15 0 8 -7 15 -15 15 -8 0
-15 -7 -15 -15z"/>
<path d="M1600 1315 c0 -8 7 -15 15 -15 8 0 15 7 15 15 0 8 -7 15 -15 15 -8 0
-15 -7 -15 -15z"/>
<path d="M3430 1275 c0 -8 -4 -15 -10 -15 -5 0 -12 -11 -16 -25 -3 -14 -10
-25 -15 -25 -5 0 -9 -7 -9 -15 0 -8 7 -15 15 -15 8 0 15 7 15 15 0 8 4 15 10
15 5 0 12 11 16 25 3 14 10 25 15 25 5 0 9 7 9 15 0 8 -7 15 -15 15 -8 0 -15
-7 -15 -15z"/>
<path d="M1464 1208 c3 -13 6 -26 6 -30 0 -5 7 -8 15 -8 17 0 18 4 9 38 -4 12
-13 22 -21 22 -11 0 -14 -6 -9 -22z"/>
<path d="M1550 1135 c0 -8 7 -15 15 -15 8 0 15 7 15 15 0 8 -7 15 -15 15 -8 0
-15 -7 -15 -15z"/>
<path d="M2898 823 c-10 -2 -18 -11 -18 -20 0 -11 6 -14 23 -9 12 3 25 6 30 6
4 0 7 7 7 15 0 15 -9 17 -42 8z"/>
<path d="M2820 785 c0 -8 7 -15 15 -15 8 0 15 7 15 15 0 8 -7 15 -15 15 -8 0
-15 -7 -15 -15z"/>
<path d="M2780 765 c0 -8 7 -15 15 -15 8 0 15 7 15 15 0 8 -7 15 -15 15 -8 0
-15 -7 -15 -15z"/>
<path d="M2730 745 c0 -8 7 -15 15 -15 8 0 15 7 15 15 0 8 -7 15 -15 15 -8 0
-15 -7 -15 -15z"/>
<path d="M2300 665 c0 -8 7 -15 15 -15 8 0 15 7 15 15 0 8 -7 15 -15 15 -8 0
-15 -7 -15 -15z"/>
<path d="M2370 665 c0 -8 7 -15 15 -15 8 0 15 7 15 15 0 8 -7 15 -15 15 -8 0
-15 -7 -15 -15z"/>
<path d="M2553 655 c-3 -9 -3 -18 0 -22 10 -10 37 6 37 22 0 20 -29 20 -37 0z"/>
<path d="M2500 645 c0 -8 7 -15 15 -15 8 0 15 7 15 15 0 8 -7 15 -15 15 -8 0
-15 -7 -15 -15z"/>
</g>
</svg>
